<?xml version="1.0" encoding="UTF-8"?>
<svg id="lOGO" xmlns="http://www.w3.org/2000/svg" viewBox="0 0 1018.84 253.46">
  <path d="M269.11,73.01c-8.74-31.31-38.51-51.88-70.79-48.78-8.18,.78-16.29,2.28-24.44,3.32-.95,.12-2.42-.34-2.96-1.05C159.87,11.91,145.53,2.87,127.32,.19,125.75,0,124.01,0,122.35,0c-6.36-.01-26.74,2.47-30.68,3.07-15.8,2.39-31.79,3.88-47.36,7.3C21.24,15.43,5.34,35.08,3.55,58.57c-.32,6.02,0,12.01,1.31,18.31,2.35,10.97,7.49,20.56,14.98,28.84,1.61,1.78,2.19,3.52,2.18,5.85-.05,26.34-.04,77.19-.04,92.08,0,2.47,1.65,4.62,4.03,5.26,24.99,6.75,144.28,38.91,164.14,44.26,1.83,.49,3.75,.34,5.48-.43,3.97-1.77,7.92-3.57,11.94-5.21,14.6-5.95,29.23-11.85,43.9-17.63,2.21-.87,2.87-1.98,2.86-4.29-.08-30.05-.02-60.1-.1-90.15,0-2.8,.69-4.84,2.7-6.95,8.04-8.43,12.51-18.65,14.14-30.15,.65-3.72,.72-17.3-1.97-25.35m-71.78,38.25c-2.15,8.28-6.31,15.4-12.77,21.04-2.13,1.86-3.03,3.81-3.02,6.73,.1,27.91,.08,82.22,.07,96.68,0,1.8-1.71,3.11-3.45,2.64-20.23-5.45-105.95-28.58-141.82-38.16-2.51-.67-3.22-1.64-3.21-4.17,.09-29.74,.08-59.48,.1-89.21,0-2.22-.51-3.86-2.14-5.5-11.78-11.79-17.76-25.85-16.3-42.73,2.05-23.74,24.05-41.63,47.68-38.76,18.42,2.23,32.03,11.64,41.28,27.57,1.64,2.83,3.23,5.69,4.96,8.76,.39,.68,1.28,.91,1.95,.49,2.3-1.45,4.41-2.8,6.51-4.26,19.29-12.49,41.03-10.51,57.79,1.5,18.76,13.45,27.79,36.49,22.37,57.39"/>
</svg>