<?xml version="1.0" encoding="UTF-8"?>
<svg id="_Слой_1" data-name="Слой 1" xmlns="http://www.w3.org/2000/svg" xmlns:xlink="http://www.w3.org/1999/xlink" viewBox="0 0 7358.5 3641.78">
  <defs>
    <style>
      .cls-1 {
        fill: #333133;
      }

      .cls-2 {
        fill: #fff;
      }

      .cls-3 {
        clip-path: url(#clippath);
      }

      .cls-4 {
        fill: none;
      }
    </style>
    <clipPath id="clippath">
      <rect class="cls-4" width="3641.78" height="3641.78"/>
    </clipPath>
  </defs>
  <g class="cls-3">
    <path class="cls-1" d="M1717.87,1943.42c-23.28-75.55,32.05-146.85,110.45-146.85,65.67,0,115.82,48.08,115.82,111.89v92.23c0,11.35-9.34,20.54-20.86,20.54s-20.86-9.2-20.86-20.54v-22.29c-17.16,27.4-47.87,44.31-85.57,42.74-46.58-1.94-85.44-33.77-98.98-77.71m182.33-34.52c0-39.34-31.06-71.68-71.88-71.68s-71.88,32.34-71.88,71.68,31.5,71.25,71.88,71.25,71.88-32.34,71.88-71.25"/>
    <path class="cls-1" d="M1958.37,1909.34v-184.23c0-11.95,9.84-21.64,21.97-21.64s21.97,9.69,21.97,21.64v103.37c28.26-30.62,79.01-44.62,127.19-17.3,37.47,21.24,61.63,60.04,59.97,102.59-2.32,59.59-51.19,107.46-115.28,107.46s-115.82-48.52-115.82-111.89m187.26-.44c0-38.9-31.06-71.25-71.44-71.25s-71.88,32.35-71.88,71.25,31.06,71.69,71.88,71.69,71.44-32.34,71.44-71.69"/>
    <path class="cls-1" d="M1467.1,1909.34v-184.23c0-11.95,9.84-21.64,21.97-21.64s21.97,9.69,21.97,21.64v103.37c28.26-30.62,79.01-44.62,127.19-17.3,37.47,21.24,61.63,60.04,59.97,102.59-2.32,59.59-51.19,107.46-115.28,107.46s-115.82-48.52-115.82-111.89m187.26-.44c0-38.9-31.06-71.25-71.44-71.25s-71.88,32.35-71.88,71.25,31.06,71.69,71.88,71.69,71.44-32.34,71.44-71.69"/>
    <path class="cls-1" d="M2196.63,1732.32c0-15.74,12.86-28.85,28.84-28.85s28.4,13.11,28.4,28.85-12.43,28.41-28.4,28.41-28.84-12.68-28.84-28.41m51.03,91.14v176.14c0,11.95-9.84,21.64-21.97,21.64s-21.97-9.69-21.97-21.64v-176.14c0-11.95,9.84-21.64,21.97-21.64s21.97,9.69,21.97,21.64"/>
    <path class="cls-1" d="M2261.8,1908.47c0-61.63,51.03-112.33,113.6-111.89,32.05,0,62.11,11.55,83.05,35.99,8.45,9.86,5.47,24.93-5.95,31.25l-.28,.15c-8.78,4.85-19.6,2.68-26.31-4.71-12.89-14.19-30.49-21.6-50.51-21.6-38.16,0-69.66,31.91-69.66,70.81s31.5,71.68,69.66,71.68c20.08,0,37.73-7.45,50.63-21.72,6.64-7.35,17.37-9.54,26.13-4.81l.12,.07c11.54,6.24,14.62,21.38,6.16,31.3-20.94,24.55-50.99,35.81-83.04,35.81-62.57,.87-113.6-50.26-113.6-112.33"/>
    <path class="cls-1" d="M2477.52,1999.6v-274.49c0-11.95,9.83-21.63,21.96-21.63h0c12.13,0,21.96,9.69,21.96,21.63v100.75c16.86-17.92,43.04-29.28,72.33-29.28,63.9,0,99.84,41.96,99.84,107.52v95.51c0,11.95-9.83,21.63-21.96,21.63s-21.96-9.69-21.96-21.63v-91.14c0-38.03-21.3-70.81-62.57-70.81-38.61,0-65.67,30.6-65.67,72.12v89.82c0,11.95-9.83,21.63-21.96,21.63h0c-12.13,0-21.96-9.69-21.96-21.63"/>
    <path class="cls-2" d="M1391.7,1723.41c-15.42-54.91-65.76-93.24-122.5-93.24-4.05,0-8.17,.2-12.22,.59-9,.86-18,2.21-26.71,3.51-5.16,.77-10.48,1.57-15.72,2.25-21.21-27.29-48.71-43.59-81.78-48.46l-.25-.03c-2.93-.34-6.02-.39-8.37-.39h-1.51c-12.41,0-49.77,4.65-55.74,5.56-8.87,1.34-17.96,2.55-26.75,3.71-19.07,2.53-38.79,5.15-58.01,9.36-43.78,9.61-75.55,47.09-79.06,93.46-.65,12.19,.16,23.54,2.5,34.77,4.39,20.44,14.01,39,28.61,55.16,1.35,1.49,1.72,2.51,1.71,4.76-.09,47.07-.08,137.24-.07,163.76,0,8.15,5.51,15.33,13.38,17.45,42.87,11.58,241.75,65.2,287.47,77.52l4.4,1.19c1.95,.53,3.97,.79,5.99,.79,3.24,0,6.39-.67,9.37-2l3.04-1.36c5.88-2.63,11.95-5.35,17.94-7.8,30.56-12.45,55.34-22.39,77.96-31.31,7.03-2.77,10.43-7.83,10.42-15.47-.07-26.59-.08-53.18-.09-79.77,0-26.84-.02-53.69-.09-80.53,0-3.04,.55-4.51,2.49-6.54,14.88-15.61,24.09-35.16,27.36-58.11,1.27-7.58,1.49-32.88-3.77-48.84"/>
    <path class="cls-1" d="M1383.67,1725.86c-15.53-55.67-68.48-92.26-125.89-86.75-14.54,1.4-28.96,4.06-43.46,5.9-1.69,.21-4.3-.6-5.26-1.86-19.63-25.93-45.13-42.02-77.51-46.79-2.8-.33-5.9-.34-8.84-.33-11.31-.02-47.55,4.4-54.56,5.46-28.09,4.25-56.53,6.9-84.21,12.98-41.03,9-69.31,43.94-72.48,85.7-.57,10.7,0,21.36,2.32,32.56,4.19,19.51,13.32,36.55,26.63,51.29,2.87,3.17,3.89,6.26,3.88,10.4-.09,46.85-.08,137.25-.07,163.74,0,4.4,2.93,8.21,7.17,9.36,44.44,12,256.56,69.19,291.87,78.71,3.25,.87,6.67,.61,9.74-.77,7.05-3.15,14.09-6.35,21.24-9.26,25.97-10.58,51.97-21.07,78.06-31.34,3.93-1.55,5.11-3.53,5.09-7.64-.14-53.43-.04-106.87-.18-160.3-.01-4.98,1.23-8.61,4.81-12.36,14.3-14.99,22.25-33.16,25.14-53.61,1.15-6.61,1.29-30.76-3.5-45.09m-127.65,68.01c-3.82,14.72-11.21,27.38-22.71,37.4-3.79,3.3-5.39,6.78-5.37,11.97,.18,49.64,.14,146.21,.13,171.92,0,3.2-3.04,5.53-6.14,4.69-35.98-9.69-188.4-50.82-252.19-67.86-4.47-1.19-5.72-2.91-5.71-7.42,.16-52.88,.14-105.76,.18-158.64,0-3.95-.91-6.87-3.81-9.78-20.95-20.97-31.58-45.97-28.98-75.99,3.65-42.22,42.76-74.02,84.79-68.93,32.75,3.97,56.96,20.69,73.41,49.02,2.92,5.03,5.75,10.12,8.83,15.57,.68,1.22,2.28,1.62,3.46,.88,4.1-2.58,7.85-4.98,11.57-7.58,34.3-22.2,72.96-18.69,102.77,2.67,33.36,23.91,49.42,64.89,39.78,102.05"/>
    <path class="cls-2" d="M1256.02,1793.88c-3.82,14.72-11.21,27.38-22.71,37.4-3.79,3.3-5.39,6.78-5.37,11.97,.18,49.64,.14,146.21,.13,171.92,0,3.2-3.04,5.53-6.14,4.69-35.98-9.69-188.4-50.82-252.19-67.86-4.47-1.19-5.72-2.91-5.71-7.42,.16-52.88,.14-105.76,.18-158.64,0-3.95-.91-6.87-3.81-9.78-20.95-20.97-31.58-45.97-28.98-75.99,3.65-42.22,42.76-74.02,84.79-68.93,32.75,3.97,56.96,20.69,73.41,49.02,2.92,5.03,5.75,10.12,8.83,15.57,.68,1.22,2.28,1.62,3.46,.88,4.1-2.58,7.85-4.98,11.57-7.58,34.3-22.2,72.96-18.69,102.77,2.67,33.36,23.91,49.42,64.89,39.78,102.05"/>
    <path class="cls-1" d="M2579.29,1648.32l5.37-2.68c.97,2.16,3.04,3.26,6.12,3.26,2.77,0,4.89-1.15,4.89-3.26,0-2.46-2.33-2.86-5.41-3.39-4.45-.75-10.48-2.33-10.48-9.02,0-5.19,4.67-9.15,10.78-9.15,4.88,0,9.11,2.24,11,6.47l-5.37,2.68c-.97-1.89-2.91-3.21-5.9-3.21-2.42,0-4.09,1.15-4.09,2.95,0,2.38,2.47,2.99,5.68,3.56,4.4,.75,10.21,2.33,10.21,9.07,0,5.33-5.02,9.2-11.31,9.2-5.32,0-9.59-2.25-11.49-6.47"/>
    <path class="cls-1" d="M2601.21,1639.43c0-8.58,6.73-15.4,15.36-15.4,5.15,0,10.08,2.73,12.28,7.35l-5.24,2.95c-1.45-2.55-3.74-4.18-7.31-4.18-4.93,0-8.49,3.92-8.49,9.29s3.52,9.29,8.49,9.29c3.57,0,5.94-1.63,7.31-4.18l5.24,2.95c-2.2,4.62-7.13,7.35-12.28,7.35-8.63,0-15.36-6.82-15.36-15.4"/>
    <polygon class="cls-1" points="2629.03 1654.22 2629.03 1624.6 2635.46 1624.6 2635.46 1636.53 2648.97 1636.53 2648.97 1624.6 2655.4 1624.6 2655.4 1654.22 2648.97 1654.22 2648.97 1642.42 2635.46 1642.42 2635.46 1654.22 2629.03 1654.22"/>
    <path class="cls-1" d="M2656.5,1639.43c0-8.71,6.65-15.36,15.41-15.36s15.45,6.65,15.45,15.36-6.69,15.36-15.45,15.36-15.41-6.6-15.41-15.36m24.21,0c0-5.24-3.83-9.29-8.8-9.29s-8.8,4.05-8.8,9.29,3.87,9.29,8.8,9.29,8.8-4.05,8.8-9.29"/>
    <path class="cls-1" d="M2686,1639.43c0-8.71,6.65-15.36,15.41-15.36s15.45,6.65,15.45,15.36-6.69,15.36-15.45,15.36-15.41-6.6-15.41-15.36m24.21,0c0-5.24-3.83-9.29-8.8-9.29s-8.8,4.05-8.8,9.29,3.87,9.29,8.8,9.29,8.8-4.05,8.8-9.29"/>
    <path class="cls-1" d="M2724.34,1648.28h13.82v5.94h-14.57c-4.1,0-5.68-2.11-5.68-5.5v-24.12h6.43v23.68Z"/>
  </g>
</svg>